<svg xmlns="http://www.w3.org/2000/svg" xmlns:xlink="http://www.w3.org/1999/xlink" width="1920" height="1134" viewBox="0 0 1920 1134" role="img" aria-label="Multi-label chest X-ray classification with explainability" font-family='Inter, "Segoe UI", system-ui, -apple-system, "Helvetica Neue", Arial, sans-serif'><defs><pattern id="grid" width="40" height="40" patternUnits="userSpaceOnUse"><path d="M40 0H0V40" fill="none" stroke="#16202C" stroke-width="1" stroke-opacity="0.5"/></pattern><pattern id="grid-coarse" width="200" height="200" patternUnits="userSpaceOnUse"><path d="M200 0H0V200" fill="none" stroke="#16202C" stroke-width="1.4" stroke-opacity="0.9"/></pattern><radialGradient id="vignette" cx="50%" cy="120%" r="120%"><stop offset="0%" stop-color="rgba(0,0,0,0.340)"/><stop offset="55%" stop-color="rgba(0,0,0,0.100)"/><stop offset="100%" stop-color="rgba(0,0,0,0.000)"/></radialGradient><radialGradient id="aurora-a" cx="8%" cy="-6%" r="62%"><stop offset="0%" stop-color="rgba(96,165,250,0.130)"/><stop offset="100%" stop-color="rgba(96,165,250,0.000)"/></radialGradient><radialGradient id="aurora-b" cx="96%" cy="4%" r="58%"><stop offset="0%" stop-color="rgba(52,211,153,0.100)"/><stop offset="100%" stop-color="rgba(52,211,153,0.000)"/></radialGradient><linearGradient id="topsheen" x1="0" y1="0" x2="1" y2="0"><stop offset="0%" stop-color="rgba(96,165,250,0.000)"/><stop offset="22%" stop-color="rgba(96,165,250,0.450)"/><stop offset="52%" stop-color="rgba(52,211,153,0.400)"/><stop offset="78%" stop-color="rgba(129,140,248,0.350)"/><stop offset="100%" stop-color="rgba(129,140,248,0.000)"/></linearGradient><linearGradient id="glass-source" x1="0" y1="0" x2="0" y2="1"><stop offset="0%" stop-color="rgba(167,139,250,0.200)"/><stop offset="55%" stop-color="rgba(167,139,250,0.105)"/><stop offset="100%" stop-color="rgba(167,139,250,0.055)"/></linearGradient><filter id="cardshadow" x="-20%" y="-20%" width="140%" height="150%"><feDropShadow dx="0" dy="5" stdDeviation="9" flood-color="#000000" flood-opacity="0.40"/></filter><linearGradient id="glass-ai" x1="0" y1="0" x2="0" y2="1"><stop offset="0%" stop-color="rgba(129,140,248,0.200)"/><stop offset="55%" stop-color="rgba(129,140,248,0.105)"/><stop offset="100%" stop-color="rgba(129,140,248,0.055)"/></linearGradient><linearGradient id="glass-trust" x1="0" y1="0" x2="0" y2="1"><stop offset="0%" stop-color="rgba(52,211,153,0.200)"/><stop offset="55%" stop-color="rgba(52,211,153,0.105)"/><stop offset="100%" stop-color="rgba(52,211,153,0.055)"/></linearGradient><linearGradient id="glass-ui" x1="0" y1="0" x2="0" y2="1"><stop offset="0%" stop-color="rgba(96,165,250,0.200)"/><stop offset="55%" stop-color="rgba(96,165,250,0.105)"/><stop offset="100%" stop-color="rgba(96,165,250,0.055)"/></linearGradient><marker id="ah-ai-solid" markerWidth="11.0" markerHeight="9.0" refX="9.0" refY="3.5" orient="auto" markerUnits="userSpaceOnUse"><path d="M0 0 L9.0 3.5 L0 7.0 Z" fill="rgba(129,140,248,0.950)"/></marker><linearGradient id="lanefill-ai" x1="0" y1="0" x2="0" y2="1"><stop offset="0%" stop-color="rgba(129,140,248,0.055)"/><stop offset="100%" stop-color="rgba(10,15,22,0.620)"/></linearGradient><linearGradient id="glass-warn" x1="0" y1="0" x2="0" y2="1"><stop offset="0%" stop-color="rgba(248,113,113,0.200)"/><stop offset="55%" stop-color="rgba(248,113,113,0.105)"/><stop offset="100%" stop-color="rgba(248,113,113,0.055)"/></linearGradient><marker id="ah-warn-solid" markerWidth="11.0" markerHeight="9.0" refX="9.0" refY="3.5" orient="auto" markerUnits="userSpaceOnUse"><path d="M0 0 L9.0 3.5 L0 7.0 Z" fill="rgba(248,113,113,0.950)"/></marker></defs><g data-name="background"><rect width="1920" height="1134" fill="#070A0F"/><rect width="1920" height="1134" fill="url(#grid-coarse)" opacity="0.5"/><rect width="1920" height="1134" fill="url(#grid)" opacity="0.38"/><rect width="1920" height="1134" fill="url(#aurora-a)"/><rect width="1920" height="1134" fill="url(#aurora-b)"/><rect width="1920" height="1134" fill="url(#vignette)"/><rect width="1920" height="2" fill="url(#topsheen)"/></g><g data-name="lane:Inference path · one study"><rect x="36.0" y="228.91999999999996" width="1700.0" height="224.12" rx="14" fill="url(#lanefill-ai)" stroke="rgba(129,140,248,0.200)" stroke-width="1"/><rect x="36.0" y="228.91999999999996" width="3.5" height="224.12" rx="1.75" fill="rgba(129,140,248,0.750)"/><rect x="36.0" y="228.91999999999996" width="3.5" height="54" rx="1.75" fill="#818CF8" opacity="0.55"/><text x="52.0" y="250.9" font-size="12.0" font-weight="600" fill="rgba(129,140,248,0.920)" letter-spacing="1.4">INFERENCE PATH · ONE STUDY</text><text x="1720.0" y="250.9" font-size="11.5" font-weight="400" fill="#667B91" text-anchor="end">event in, enriched event out</text></g><g data-name="header"><text x="56.0" y="68.0" font-size="12.0" font-weight="600" fill="#60A5FA" letter-spacing="1.4">COMPUTER VISION · RESEARCH PROTOTYPE</text><text x="56.0" y="109.0" font-size="34.0" font-weight="600" fill="#E8EEF6" letter-spacing="-0.4">Multi-label chest X-ray classification with explainability</text><text x="56.0" y="140.0" font-size="17.0" font-weight="400" fill="#9FB0C3">Internal project name: “AI Radiologist”. A research/prototype medical-imaging classification pipeline — not a medical device and not clinically deployed. Five findings, one calibrated</text><text x="56.0" y="163.5" font-size="17.0" font-weight="400" fill="#9FB0C3">threshold each, and a Grad-CAM++ attribution map.</text><line x1="56" y1="192.92" x2="1864" y2="192.92" stroke="#1C2736" stroke-width="1"/></g><g data-name="byline"><text x="1864.0" y="70.0" font-size="12.0" font-weight="500" fill="#9FB0C3" letter-spacing="0.3" text-anchor="end">Mohd Zamin Quadri</text><text x="1864.0" y="88.0" font-size="11.5" font-weight="400" fill="#667B91" text-anchor="end">AI Engineer · BP-ITCS</text></g><g data-name="card:Study arrives" data-role="source" data-level="integrated"><rect x="56" y="268.91999999999996" width="292" height="129.02" rx="10" fill="rgba(7,10,15,0.720)" filter="url(#cardshadow)"/><rect x="56" y="268.91999999999996" width="292" height="129.02" rx="10" fill="url(#glass-source)" stroke="#1C2736" stroke-width="1.0"/><path d="M66 269.81999999999994H338" stroke="rgba(255,255,255,0.110)" stroke-width="1" fill="none"/><path d="M75.5 283.91999999999996h6.5l3.5 3.5v8.5h-10z" fill="none" stroke="#A78BFA" stroke-width="1.3" stroke-linejoin="round"/><path d="M82 283.91999999999996v3.5h3.5" fill="none" stroke="#A78BFA" stroke-width="1.3"/><text x="94.0" y="296.0" font-size="16.0" font-weight="600" fill="#E8EEF6" letter-spacing="-0.1">Study arrives</text><text x="72.0" y="318.6" font-size="13.0" font-weight="400" fill="#9FB0C3">A medical image is uploaded and an event</text><text x="72.0" y="336.1" font-size="13.0" font-weight="400" fill="#9FB0C3">names it; the bytes live in object storage</text><line x1="72" y1="358.65999999999997" x2="332" y2="358.65999999999997" stroke="#1C2736" stroke-width="1"/><text x="72.0" y="372.7" font-size="12.0" font-weight="400" fill="#667B91" font-family='"JetBrains Mono", "Cascadia Code", Consolas, "SF Mono", Menlo, monospace'>ibp.events.inbound</text><text x="72.0" y="388.9" font-size="12.0" font-weight="400" fill="#667B91" font-family='"JetBrains Mono", "Cascadia Code", Consolas, "SF Mono", Menlo, monospace'>entityType: MEDICAL_IMAGE</text></g><g data-name="card:Preprocess" data-role="ai" data-level="extended"><rect x="398" y="268.91999999999996" width="292" height="129.02" rx="10" fill="rgba(7,10,15,0.720)" filter="url(#cardshadow)"/><rect x="398" y="268.91999999999996" width="292" height="129.02" rx="10" fill="url(#glass-ai)" stroke="rgba(129,140,248,0.620)" stroke-width="1.6"/><path d="M408 269.81999999999994H680" stroke="rgba(255,255,255,0.110)" stroke-width="1" fill="none"/><polyline points="680,269.71999999999997 689.2,269.71999999999997 689.2,278.91999999999996" fill="none" stroke="#818CF8" stroke-width="1.6" opacity="0.85"/><path d="M423.5 283.91999999999996L418 290.91999999999996h3.4l-1 5 5.6-7.4h-3.4Z" fill="none" stroke="#818CF8" stroke-width="1.3" stroke-linejoin="round"/><text x="436.0" y="296.0" font-size="16.0" font-weight="600" fill="#E8EEF6" letter-spacing="-0.1">Preprocess</text><text x="414.0" y="318.6" font-size="13.0" font-weight="400" fill="#9FB0C3">Decode, resize to the model's input</text><text x="414.0" y="336.1" font-size="13.0" font-weight="400" fill="#9FB0C3">geometry, normalise</text><line x1="414" y1="358.65999999999997" x2="674" y2="358.65999999999997" stroke="#1C2736" stroke-width="1"/><text x="414.0" y="372.7" font-size="12.0" font-weight="400" fill="#667B91" font-family='"JetBrains Mono", "Cascadia Code", Consolas, "SF Mono", Menlo, monospace'>224 × 224 · IMAGE_SIZE</text><text x="414.0" y="388.9" font-size="12.0" font-weight="400" fill="#667B91" font-family='"JetBrains Mono", "Cascadia Code", Consolas, "SF Mono", Menlo, monospace'>max dimension 800 on re-encode</text></g><g data-name="card:Classify" data-role="ai" data-level="extended"><rect x="740" y="268.91999999999996" width="292" height="164.12" rx="10" fill="rgba(7,10,15,0.720)" filter="url(#cardshadow)"/><rect x="740" y="268.91999999999996" width="292" height="164.12" rx="10" fill="url(#glass-ai)" stroke="rgba(129,140,248,0.620)" stroke-width="1.6"/><path d="M750 269.81999999999994H1022" stroke="rgba(255,255,255,0.110)" stroke-width="1" fill="none"/><polyline points="1022,269.71999999999997 1031.2,269.71999999999997 1031.2,278.91999999999996" fill="none" stroke="#818CF8" stroke-width="1.6" opacity="0.85"/><path d="M764 284.41999999999996c-3 0-5 1.9-5 4.2 0 1 .4 1.9 1 2.6-.4.6-.6 1.2-.6 1.9 0 1.6 1.4 2.8 3.2 2.8 .9 0 1.7-.3 2.3-.8.6.5 1.4.8 2.3.8 1.8 0 3.2-1.2 3.2-2.8 0-.7-.2-1.3-.6-1.9.6-.7 1-1.6 1-2.6 0-2.3-2-4.2-5-4.2Z" fill="none" stroke="#818CF8" stroke-width="1.3"/><line x1="764" y1="285.91999999999996" x2="764" y2="295.41999999999996" stroke="#818CF8" stroke-width="1.3" stroke-opacity="0.7"/><text x="778.0" y="296.0" font-size="16.0" font-weight="600" fill="#E8EEF6" letter-spacing="-0.1">Classify</text><text x="756.0" y="318.6" font-size="13.0" font-weight="400" fill="#9FB0C3">DenseNet-121 with a dropout + linear head</text><text x="756.0" y="336.1" font-size="13.0" font-weight="400" fill="#9FB0C3">over five findings. Sigmoid per class, not</text><text x="756.0" y="353.7" font-size="13.0" font-weight="400" fill="#9FB0C3">softmax — a study can show several</text><text x="756.0" y="371.2" font-size="13.0" font-weight="400" fill="#9FB0C3">findings at once.</text><line x1="756" y1="393.75999999999993" x2="1016" y2="393.75999999999993" stroke="#1C2736" stroke-width="1"/><text x="756.0" y="407.8" font-size="12.0" font-weight="400" fill="#667B91" font-family='"JetBrains Mono", "Cascadia Code", Consolas, "SF Mono", Menlo, monospace'>DenseNet121-v2.0.0</text><text x="756.0" y="424.0" font-size="12.0" font-weight="400" fill="#667B91" font-family='"JetBrains Mono", "Cascadia Code", Consolas, "SF Mono", Menlo, monospace'>torchvision · CUDA or DirectML</text></g><g data-name="card:Attribute" data-role="trust" data-level="extended"><rect x="1082" y="268.91999999999996" width="292" height="146.57" rx="10" fill="rgba(7,10,15,0.720)" filter="url(#cardshadow)"/><rect x="1082" y="268.91999999999996" width="292" height="146.57" rx="10" fill="url(#glass-trust)" stroke="rgba(52,211,153,0.620)" stroke-width="1.6"/><path d="M1092 269.81999999999994H1364" stroke="rgba(255,255,255,0.110)" stroke-width="1" fill="none"/><polyline points="1364,269.71999999999997 1373.2,269.71999999999997 1373.2,278.91999999999996" fill="none" stroke="#34D399" stroke-width="1.6" opacity="0.85"/><path d="M1106 283.91999999999996l5 2v4.2c0 3.2-2.1 5.6-5 6.6c-2.9-1-5-3.4-5-6.6v-4.2z" fill="none" stroke="#34D399" stroke-width="1.3" stroke-linejoin="round"/><path d="M1103.4 289.91999999999996l2 2 3.4-3.6" fill="none" stroke="#34D399" stroke-width="1.5" stroke-linecap="round"/><text x="1120.0" y="296.0" font-size="16.0" font-weight="600" fill="#E8EEF6" letter-spacing="-0.1">Attribute</text><text x="1098.0" y="318.6" font-size="13.0" font-weight="400" fill="#9FB0C3">Grad-CAM++ over the final convolutional</text><text x="1098.0" y="336.1" font-size="13.0" font-weight="400" fill="#9FB0C3">block, showing which regions drove each</text><text x="1098.0" y="353.7" font-size="13.0" font-weight="400" fill="#9FB0C3">positive finding</text><line x1="1098" y1="376.2099999999999" x2="1358" y2="376.2099999999999" stroke="#1C2736" stroke-width="1"/><text x="1098.0" y="390.2" font-size="12.0" font-weight="400" fill="#667B91" font-family='"JetBrains Mono", "Cascadia Code", Consolas, "SF Mono", Menlo, monospace'>Chattopadhay et al., WACV 2018</text><text x="1098.0" y="406.4" font-size="12.0" font-weight="400" fill="#667B91" font-family='"JetBrains Mono", "Cascadia Code", Consolas, "SF Mono", Menlo, monospace'>keep 40% · floor 10%</text></g><g data-name="card:Report" data-role="ui" data-level="extended"><rect x="1424" y="268.91999999999996" width="292" height="146.57" rx="10" fill="rgba(7,10,15,0.720)" filter="url(#cardshadow)"/><rect x="1424" y="268.91999999999996" width="292" height="146.57" rx="10" fill="url(#glass-ui)" stroke="rgba(96,165,250,0.620)" stroke-width="1.6"/><path d="M1434 269.81999999999994H1706" stroke="rgba(255,255,255,0.110)" stroke-width="1" fill="none"/><polyline points="1706,269.71999999999997 1715.2,269.71999999999997 1715.2,278.91999999999996" fill="none" stroke="#60A5FA" stroke-width="1.6" opacity="0.85"/><rect x="1442" y="284.91999999999996" width="12" height="10" rx="1.8" fill="none" stroke="#60A5FA" stroke-width="1.3"/><line x1="1442" y1="287.91999999999996" x2="1454" y2="287.91999999999996" stroke="#60A5FA" stroke-width="1.3"/><circle cx="1444.2" cy="286.41999999999996" r="0.8" fill="#60A5FA"/><text x="1462.0" y="296.0" font-size="16.0" font-weight="600" fill="#E8EEF6" letter-spacing="-0.1">Report</text><text x="1440.0" y="318.6" font-size="13.0" font-weight="400" fill="#9FB0C3">Per-finding probability, its threshold, the</text><text x="1440.0" y="336.1" font-size="13.0" font-weight="400" fill="#9FB0C3">verdict, an urgency band and an ICD-10</text><text x="1440.0" y="353.7" font-size="13.0" font-weight="400" fill="#9FB0C3">code; heatmap written to object storage</text><line x1="1440" y1="376.2099999999999" x2="1700" y2="376.2099999999999" stroke="#1C2736" stroke-width="1"/><text x="1440.0" y="390.2" font-size="12.0" font-weight="400" fill="#667B91" font-family='"JetBrains Mono", "Cascadia Code", Consolas, "SF Mono", Menlo, monospace'>ibp.events.ai.processed</text><text x="1440.0" y="406.4" font-size="12.0" font-weight="400" fill="#667B91" font-family='"JetBrains Mono", "Cascadia Code", Consolas, "SF Mono", Menlo, monospace'>jet colormap · alpha 0.40</text></g><g data-name="edge:sync:unlabelled"><path d="M353.0 333.4 L378.0 333.4 L378.0 333.4 L403.0 333.4" fill="none" stroke="rgba(129,140,248,0.850)" stroke-width="1.4" marker-end="url(#ah-ai-solid)" stroke-linecap="round"/></g><g data-name="edge:sync:unlabelled"><path d="M695.0 333.4 L712.0 333.4 Q720.0 333.4 720.0 341.4 L720.0 343.0 Q720.0 351.0 728.0 351.0 L745.0 351.0" fill="none" stroke="rgba(129,140,248,0.850)" stroke-width="1.4" marker-end="url(#ah-ai-solid)" stroke-linecap="round"/></g><g data-name="edge:sync:unlabelled"><path d="M1037.0 351.0 L1057.6 351.0 Q1062.0 351.0 1062.0 346.6 L1062.0 346.6 Q1062.0 342.2 1066.4 342.2 L1087.0 342.2" fill="none" stroke="rgba(129,140,248,0.850)" stroke-width="1.4" marker-end="url(#ah-ai-solid)" stroke-linecap="round"/></g><g data-name="edge:sync:unlabelled"><path d="M1379.0 342.2 L1404.0 342.2 L1404.0 342.2 L1429.0 342.2" fill="none" stroke="rgba(129,140,248,0.850)" stroke-width="1.4" marker-end="url(#ah-ai-solid)" stroke-linecap="round"/></g><text x="56.0" y="479.0" font-size="12.0" font-weight="600" fill="#34D399" letter-spacing="1.4">FIVE FINDINGS, FIVE DECISION THRESHOLDS</text><g data-name="matrix:findings"><rect x="56" y="495.03999999999996" width="1112" height="30" rx="6" fill="rgba(232,238,246,0.040)"/><text x="68.0" y="514.0" font-size="12.0" font-weight="600" fill="#667B91" letter-spacing="1.4">FINDING</text><text x="328.0" y="514.0" font-size="12.0" font-weight="600" fill="#667B91" letter-spacing="1.4">THRESHOLD</text><text x="508.0" y="514.0" font-size="12.0" font-weight="600" fill="#667B91" letter-spacing="1.4">ICD-10</text><text x="668.0" y="514.0" font-size="12.0" font-weight="600" fill="#667B91" letter-spacing="1.4">WHAT IT MEANS</text><text x="68.0" y="547.0" font-size="11.5" font-weight="400" fill="rgba(129,140,248,0.950)">Atelectasis</text><text x="328.0" y="547.0" font-size="12.0" font-weight="400" fill="#9FB0C3" font-family='"JetBrains Mono", "Cascadia Code", Consolas, "SF Mono", Menlo, monospace'>0.329</text><text x="508.0" y="547.0" font-size="12.0" font-weight="400" fill="#9FB0C3" font-family='"JetBrains Mono", "Cascadia Code", Consolas, "SF Mono", Menlo, monospace'>J98.11</text><text x="668.0" y="547.0" font-size="11.5" font-weight="400" fill="#9FB0C3">Partial lung collapse</text><rect x="56" y="562.04" width="1112" height="34" rx="4" fill="rgba(232,238,246,0.022)"/><text x="68.0" y="581.0" font-size="11.5" font-weight="400" fill="rgba(129,140,248,0.950)">Cardiomegaly</text><text x="328.0" y="581.0" font-size="12.0" font-weight="400" fill="#9FB0C3" font-family='"JetBrains Mono", "Cascadia Code", Consolas, "SF Mono", Menlo, monospace'>0.130</text><text x="508.0" y="581.0" font-size="12.0" font-weight="400" fill="#9FB0C3" font-family='"JetBrains Mono", "Cascadia Code", Consolas, "SF Mono", Menlo, monospace'>I51.7</text><text x="668.0" y="581.0" font-size="11.5" font-weight="400" fill="#9FB0C3">Enlarged heart</text><text x="68.0" y="615.0" font-size="11.5" font-weight="400" fill="rgba(129,140,248,0.950)">Consolidation</text><text x="328.0" y="615.0" font-size="12.0" font-weight="400" fill="#9FB0C3" font-family='"JetBrains Mono", "Cascadia Code", Consolas, "SF Mono", Menlo, monospace'>0.234</text><text x="508.0" y="615.0" font-size="12.0" font-weight="400" fill="#9FB0C3" font-family='"JetBrains Mono", "Cascadia Code", Consolas, "SF Mono", Menlo, monospace'>R91.8</text><text x="668.0" y="615.0" font-size="11.5" font-weight="400" fill="#9FB0C3">Airspace filled with fluid</text><rect x="56" y="630.04" width="1112" height="34" rx="4" fill="rgba(232,238,246,0.022)"/><text x="68.0" y="649.0" font-size="11.5" font-weight="400" fill="rgba(129,140,248,0.950)">Edema</text><text x="328.0" y="649.0" font-size="12.0" font-weight="400" fill="#9FB0C3" font-family='"JetBrains Mono", "Cascadia Code", Consolas, "SF Mono", Menlo, monospace'>0.233</text><text x="508.0" y="649.0" font-size="12.0" font-weight="400" fill="#9FB0C3" font-family='"JetBrains Mono", "Cascadia Code", Consolas, "SF Mono", Menlo, monospace'>J81.0</text><text x="668.0" y="649.0" font-size="11.5" font-weight="400" fill="#9FB0C3">Fluid in the lungs</text><text x="68.0" y="683.0" font-size="11.5" font-weight="400" fill="rgba(129,140,248,0.950)">Effusion</text><text x="328.0" y="683.0" font-size="12.0" font-weight="400" fill="#9FB0C3" font-family='"JetBrains Mono", "Cascadia Code", Consolas, "SF Mono", Menlo, monospace'>0.424</text><text x="508.0" y="683.0" font-size="12.0" font-weight="400" fill="#9FB0C3" font-family='"JetBrains Mono", "Cascadia Code", Consolas, "SF Mono", Menlo, monospace'>J90</text><text x="668.0" y="683.0" font-size="11.5" font-weight="400" fill="#9FB0C3">Fluid in the pleural space</text><line x1="56" y1="701.04" x2="1168" y2="701.04" stroke="#1C2736" stroke-width="1"/></g><g data-name="note"><rect x="1196" y="495.03999999999996" width="2.5" height="99.0" rx="1.2" fill="rgba(52,211,153,0.850)"/><text x="1210.0" y="507.0" font-size="12.0" font-weight="600" fill="rgba(52,211,153,0.950)" letter-spacing="1.4">WHY PER-CLASS THRESHOLDS</text><text x="1210.0" y="527.0" font-size="12.5" font-weight="400" fill="#9FB0C3">A single global cut-off would have been wrong for every class. Cardiomegaly is called positive at 0.130 and</text><text x="1210.0" y="544.8" font-size="12.5" font-weight="400" fill="#9FB0C3">Effusion only at 0.424 — the same raw score means different things per finding.</text><text x="1210.0" y="562.5" font-size="12.5" font-weight="400" fill="#9FB0C3">The thresholds are Youden's J optima from a validation set, so each one maximises sensitivity plus specificity for</text><text x="1210.0" y="580.3" font-size="12.5" font-weight="400" fill="#9FB0C3">its own class rather than for the average.</text></g><g data-name="note"><rect x="1196" y="612.04" width="2.5" height="99.0" rx="1.2" fill="rgba(96,165,250,0.850)"/><text x="1210.0" y="624.0" font-size="12.0" font-weight="600" fill="rgba(96,165,250,0.950)" letter-spacing="1.4">PRESENCE IS NOT URGENCY</text><text x="1210.0" y="644.0" font-size="12.5" font-weight="400" fill="#9FB0C3">Presence and urgency are answered separately. Presence uses the calibrated per-class threshold; urgency uses</text><text x="1210.0" y="661.8" font-size="12.5" font-weight="400" fill="#9FB0C3">fixed probability bands — HIGH at 0.70, MODERATE at 0.40, otherwise LOW.</text><text x="1210.0" y="679.5" font-size="12.5" font-weight="400" fill="#9FB0C3">Collapsing the two would make a confident low-acuity finding look like an emergency, and a borderline</text><text x="1210.0" y="697.3" font-size="12.5" font-weight="400" fill="#9FB0C3">high-acuity one look routine.</text></g><text x="56.0" y="755.0" font-size="12.0" font-weight="600" fill="#F87171" letter-spacing="1.4">A DESIGN DECISION · FACT FROM CODE, THEN MY READING OF IT</text><g data-name="card:Fact · what exists in the code" data-role="ai" data-level="extended"><rect x="56" y="771.04" width="585.3333333333334" height="85.62" rx="10" fill="rgba(7,10,15,0.720)" filter="url(#cardshadow)"/><rect x="56" y="771.04" width="585.3333333333334" height="85.62" rx="10" fill="url(#glass-ai)" stroke="rgba(129,140,248,0.620)" stroke-width="1.6"/><path d="M66 771.9399999999999H631.3333333333334" stroke="rgba(255,255,255,0.110)" stroke-width="1" fill="none"/><polyline points="631.3333333333334,771.8399999999999 640.5333333333334,771.8399999999999 640.5333333333334,781.04" fill="none" stroke="#818CF8" stroke-width="1.6" opacity="0.85"/><path d="M80 786.54c-3 0-5 1.9-5 4.2 0 1 .4 1.9 1 2.6-.4.6-.6 1.2-.6 1.9 0 1.6 1.4 2.8 3.2 2.8 .9 0 1.7-.3 2.3-.8.6.5 1.4.8 2.3.8 1.8 0 3.2-1.2 3.2-2.8 0-.7-.2-1.3-.6-1.9.6-.7 1-1.6 1-2.6 0-2.3-2-4.2-5-4.2Z" fill="none" stroke="#818CF8" stroke-width="1.3"/><line x1="80" y1="788.04" x2="80" y2="797.54" stroke="#818CF8" stroke-width="1.3" stroke-opacity="0.7"/><text x="94.0" y="798.2" font-size="16.0" font-weight="600" fill="#E8EEF6" letter-spacing="-0.1">Fact · what exists in the code</text><text x="72.0" y="820.7" font-size="13.0" font-weight="400" fill="#9FB0C3">A per-finding anatomical prior: cardiomegaly centre-left, effusion lower, edema perihilar,</text><text x="72.0" y="838.2" font-size="13.0" font-weight="400" fill="#9FB0C3">each with a boost factor. It is boost-only — the mask never suppresses, it only emphasises.</text></g><g data-name="card:Fact · it is switched off" data-role="warn" data-level="extended"><rect x="667.3333333333334" y="771.04" width="585.3333333333334" height="103.17" rx="10" fill="rgba(7,10,15,0.720)" filter="url(#cardshadow)"/><rect x="667.3333333333334" y="771.04" width="585.3333333333334" height="103.17" rx="10" fill="url(#glass-warn)" stroke="rgba(248,113,113,0.620)" stroke-width="1.6"/><path d="M677.3333333333334 771.9399999999999H1242.6666666666667" stroke="rgba(255,255,255,0.110)" stroke-width="1" fill="none"/><polyline points="1242.6666666666667,771.8399999999999 1251.8666666666668,771.8399999999999 1251.8666666666668,781.04" fill="none" stroke="#F87171" stroke-width="1.6" opacity="0.85"/><path d="M691.3333333333334 786.54l6 11H685.3333333333334Z" fill="none" stroke="#F87171" stroke-width="1.3" stroke-linejoin="round"/><line x1="691.3333333333334" y1="790.54" x2="691.3333333333334" y2="793.8399999999999" stroke="#F87171" stroke-width="1.5" stroke-linecap="round"/><circle cx="691.3333333333334" cy="795.64" r="0.85" fill="#F87171"/><text x="705.3" y="798.2" font-size="16.0" font-weight="600" fill="#E8EEF6" letter-spacing="-0.1">Fact · it is switched off</text><text x="683.3" y="820.7" font-size="13.0" font-weight="400" fill="#9FB0C3">USE_ANATOMICAL_HINTS = False, commented “DISABLED — trust Grad-CAM fully”. The</text><text x="683.3" y="838.2" font-size="13.0" font-weight="400" fill="#9FB0C3">code states the model’s attention is the ground truth for localisation and the hints are soft</text><text x="683.3" y="855.8" font-size="13.0" font-weight="400" fill="#9FB0C3">only.</text></g><g data-name="card:My reading · not documented in the code" data-role="ui" data-level="extended"><rect x="1278.6666666666667" y="771.04" width="585.3333333333334" height="103.17" rx="10" fill="rgba(7,10,15,0.720)" filter="url(#cardshadow)"/><rect x="1278.6666666666667" y="771.04" width="585.3333333333334" height="103.17" rx="10" fill="url(#glass-ui)" stroke="rgba(96,165,250,0.620)" stroke-width="1.6"/><path d="M1288.6666666666667 771.9399999999999H1854.0" stroke="rgba(255,255,255,0.110)" stroke-width="1" fill="none"/><polyline points="1854.0,771.8399999999999 1863.2,771.8399999999999 1863.2,781.04" fill="none" stroke="#60A5FA" stroke-width="1.6" opacity="0.85"/><rect x="1296.6666666666667" y="787.04" width="12" height="10" rx="1.8" fill="none" stroke="#60A5FA" stroke-width="1.3"/><line x1="1296.6666666666667" y1="790.04" x2="1308.6666666666667" y2="790.04" stroke="#60A5FA" stroke-width="1.3"/><circle cx="1298.8666666666668" cy="788.54" r="0.8" fill="#60A5FA"/><text x="1316.7" y="798.2" font-size="16.0" font-weight="600" fill="#E8EEF6" letter-spacing="-0.1">My reading · not documented in the code</text><text x="1294.7" y="820.7" font-size="13.0" font-weight="400" fill="#9FB0C3">An engineering concern is that an anatomical prior could bias localisation towards expected</text><text x="1294.7" y="838.2" font-size="13.0" font-weight="400" fill="#9FB0C3">anatomy, so the attribution would tend to agree with the label rather than show what the</text><text x="1294.7" y="855.8" font-size="13.0" font-weight="400" fill="#9FB0C3">model used. That rationale is my interpretation of the decision, not a comment in the source.</text></g><g data-name="edge:sync:unlabelled"><path d="M646.3 813.8 L654.9 813.8 Q659.3 813.8 659.3 818.2 L659.3 818.2 Q659.3 822.6 663.7 822.6 L672.3 822.6" fill="none" stroke="rgba(248,113,113,0.850)" stroke-width="1.4" marker-end="url(#ah-warn-solid)" stroke-linecap="round"/></g><g data-name="edge:sync:unlabelled"><path d="M1257.7 822.6 L1270.7 822.6 L1270.7 822.6 L1283.7 822.6" fill="none" stroke="rgba(248,113,113,0.850)" stroke-width="1.4" marker-end="url(#ah-warn-solid)" stroke-linecap="round"/></g><g data-name="note"><rect x="56" y="924.2099999999999" width="2.5" height="63.5" rx="1.2" fill="rgba(52,211,153,0.850)"/><text x="70.0" y="936.2" font-size="12.0" font-weight="600" fill="rgba(52,211,153,0.950)" letter-spacing="1.4">INTERPRETATION, AND THE LIMITS</text><text x="70.0" y="956.2" font-size="12.5" font-weight="400" fill="#9FB0C3">I read this as the same shape of decision as the legal corpus’s structural oracle — a check that shares the assumption of the thing it checks cannot falsify it. That parallel is my own framing across two codebases, not a claim that either was built with the other in mind.</text><text x="70.0" y="974.0" font-size="12.5" font-weight="400" fill="#9FB0C3">Stated plainly: a research/prototype classification pipeline with explainability and calibrated thresholds. Not a medical device, not clinically validated or deployed, no regulatory clearance, and no accuracy figure is claimed anywhere in this portfolio.</text></g><g data-name="legend"><text x="56.0" y="1027.7" font-size="12.0" font-weight="600" fill="#667B91" letter-spacing="1.4">ROLE</text><circle cx="115" cy="1023.71" r="4.6" fill="#A78BFA" opacity="0.92"/><text x="125.0" y="1027.7" font-size="12.0" font-weight="500" fill="#9FB0C3" letter-spacing="0.3">External source</text><circle cx="246.66528" cy="1023.71" r="4.6" fill="#818CF8" opacity="0.92"/><text x="256.7" y="1027.7" font-size="12.0" font-weight="500" fill="#9FB0C3" letter-spacing="0.3">AI / ML</text><circle cx="329.17616" cy="1023.71" r="4.6" fill="#F0B429" opacity="0.92"/><text x="339.2" y="1027.7" font-size="12.0" font-weight="500" fill="#9FB0C3" letter-spacing="0.3">Persistence</text><circle cx="438.14655999999997" cy="1023.71" r="4.6" fill="#34D399" opacity="0.92"/><text x="448.1" y="1027.7" font-size="12.0" font-weight="500" fill="#9FB0C3" letter-spacing="0.3">Verification / trust</text><circle cx="586.3704" cy="1023.71" r="4.6" fill="#60A5FA" opacity="0.92"/><text x="596.4" y="1027.7" font-size="12.0" font-weight="500" fill="#9FB0C3" letter-spacing="0.3">Operator / API</text><circle cx="711.78512" cy="1023.71" r="4.6" fill="#F87171" opacity="0.92"/><text x="721.8" y="1027.7" font-size="12.0" font-weight="500" fill="#9FB0C3" letter-spacing="0.3">Failure path</text><text x="56.0" y="1049.7" font-size="12.0" font-weight="600" fill="#667B91" letter-spacing="1.4">FLOW</text><line x1="110" y1="1045.71" x2="136" y2="1045.71" stroke="#667B91" stroke-width="1.4"/><text x="144.0" y="1049.7" font-size="12.0" font-weight="500" fill="#9FB0C3" letter-spacing="0.3">synchronous request</text><text x="56.0" y="1071.7" font-size="12.0" font-weight="600" fill="#667B91" letter-spacing="1.4">AUTHORSHIP</text><rect x="160" y="1060.71" width="15" height="13" rx="3" fill="rgba(232,238,246,0.050)" stroke="#667B91" stroke-width="2.0"/><polygon points="168,1060.71 175,1060.71 175,1067.71 " fill="#9FB0C3"/><text x="183.0" y="1071.7" font-size="12.0" font-weight="500" fill="#9FB0C3" letter-spacing="0.3">Primary implementation</text><rect x="349.00544" y="1060.71" width="15" height="13" rx="3" fill="rgba(232,238,246,0.050)" stroke="#667B91" stroke-width="1.6"/><polyline points="357.00544,1061.51 363.20544,1061.51 363.20544,1067.71" fill="none" stroke="#9FB0C3" stroke-width="1.4"/><text x="372.0" y="1071.7" font-size="12.0" font-weight="500" fill="#9FB0C3" letter-spacing="0.3">Significant contribution</text><rect x="534.7248" y="1060.71" width="15" height="13" rx="3" fill="rgba(232,238,246,0.050)" stroke="#667B91" stroke-width="1.0"/><text x="557.7" y="1071.7" font-size="12.0" font-weight="500" fill="#9FB0C3" letter-spacing="0.3">Existing platform</text></g></svg>